<?xml version="1.0" encoding="utf-8"?>
<!-- Generator: Adobe Illustrator 25.0.0, SVG Export Plug-In . SVG Version: 6.00 Build 0)  -->
<svg version="1.1" id="Layer_1" xmlns="http://www.w3.org/2000/svg" xmlns:xlink="http://www.w3.org/1999/xlink" x="0px" y="0px"
	 viewBox="0 0 792 792" style="enable-background:new 0 0 792 792;" xml:space="preserve">
<style type="text/css">
	.st0{fill:#040404;}
	.st1{fill:#EE2844;}
	.st2{fill:#FFFFFF;}
	.st3{fill:#4477BC;}
	.st4{fill:#FCCCB3;}
</style>
<path class="st0" d="M86.69,550.01c-10.7-27.39-17.66-55.75-22.51-84.71c-4.78-28.56-8.55-57.2-9.45-86.18
	c-0.15-4.69-0.54-9.36-0.83-14.05c-0.72,1.54-0.99,3.08-1,4.62c-0.31,27.72,1.91,55.28,6,82.67c3.55,23.77,8.66,47.22,15.84,70.18
	c4.23,13.54,8.52,27.08,15.43,39.59c1.89,4.51,4.24,8.75,7.83,12.25c-2.29-4.44-4.58-8.88-6.87-13.32
	C89.65,557.39,88.14,553.71,86.69,550.01z M78.32,269.62c14.25-48.99,41.74-89.94,76.16-126.74
	C116.56,177.6,89.53,218.89,78.32,269.62z M738.7,441.38c-18.33-10.49-37.2-9.06-56.34-1.05c-0.61-1.46,0.3-2.45,1.02-3.48
	c8.53-12.3,13.23-26.25,17.63-40.37c4.02-12.9,3.83-26.67,8.33-39.49c1.01-2.87,0.91-6.19,1.01-9.32
	c0.73-22.86-5.56-44.2-14.93-64.67c-19.26-42.07-47.71-77.47-80.64-109.5c-4.5-4.38-8.98-8.73-12.97-13.61
	c-7.05-8.63-14.61-16.82-23.71-23.39c-2.53-1.83-5.32-4.02-8.56-2.04c-3.8,2.33-6.86,1.1-10.15-0.91c-2.54-1.55-5.27-2.79-7.95-4.11
	c-21.27-10.56-43.89-17.6-66.2-25.48c-27.36-9.67-55.37-15.94-84.41-17.13c-31.44-1.29-62.67,0.67-93.59,6.72
	c-31.48,6.15-61.76,15.78-89.82,31.64c-19.02,10.75-36.11,23.89-49.9,41.02c-0.95,1.18-2.71,2.32-1.94,3.98
	c0.89,1.93,3,1.12,4.64,1.08c2.74-0.07,5.47-0.25,9.14-0.43c-2.38,2.73-4.12,4.76-5.89,6.77c-1.89,2.14-3.9,4.18-5.67,6.41
	c-1.89,2.39-4.61,2.37-7.18,3.1c-2.46,0.7-5.25,0.81-8.1,2.94c4.11,0.04,7.21-1.84,11.1-1.18c-22.89,27.52-43.27,55.92-55.99,89.08
	c0.69-0.51,1.22-1.14,1.56-1.86c14.98-31.13,35.08-58.88,56.59-85.7c1.04-1.3,1.81-2.82,3.87-2.99c5.06-0.41,10.1-1.01,16.49-1.67
	c-17.83,21.1-33.36,42.29-45.44,65.8c0.73-0.34,1.15-0.88,1.53-1.46c13.88-21.09,28.64-41.53,44.81-60.93
	c1.02-1.23,1.6-3.18,3.73-3.18c4.33-0.01,8.65,0,13.87,0c-14.22,14.46-26.17,29.29-34.48,46.75c0.67-0.2,1.04-0.63,1.34-1.1
	c9.96-15.92,22.07-30.1,35.23-43.43c1.26-1.27,2.48-2.21,4.44-2c10.48,1.13,21,1.92,31.39,3.74c9.01,1.58,17.98,3.35,26.97,5.03
	c-18.3-7.09-37.44-10.1-57.51-11.78c3.21-3.03,6.14-5.45,8.65-8.25c2.78-3.08,5.95-3.82,9.94-3.33c10.18,1.25,20.45,1.83,30.57,3.41
	c13.02,2.03,25.99,4.56,37.75,11c3.55,1.94,7,4.05,9.56,7.88c-9.78,2.31-19.18,4.39-28.51,6.75
	c-37.98,9.61-74.91,21.87-108.49,42.72c-39.97,24.82-67.64,60.04-87.12,102.27c-0.54,1.17-1.03,3.38,0.03,3.42
	c3.81,0.17,1.35,2.4,1.33,3.56c-0.02,1.68-0.75,3.33-0.87,5.02c-0.29,3.79-2.19,5.93-5.75,7.34c-5.97,2.37-11.48,5.65-16.2,10.14
	c6.65-2.69,12.85-6.36,19.52-8.4c2.76,9.23-5.31,10.03-11.3,13.52c4.37,0.39,7.09-1.73,10.37-1.66c-1.64,16.6-1.25,32.9,3.13,48.92
	c0.32-0.85,0.41-1.7,0.3-2.52c-1.71-13.63-2.26-27.27-1.01-40.99c0.7-7.72-0.88-6.5,7.86-8.96c0.31,6.81-1.68,13.59-0.13,20.4
	c1.12-5.7,2.18-11.41,2.54-17.17c0.23-3.58,1.64-5.3,4.96-6.29c2.9-0.87,6.01-1.54,8.74-4.08c-4.58-0.65-8.15,2.18-12.4,2.02
	c0.19-1.07,0.5-1.89,0.46-2.7c-0.25-4.54,2.12-6.4,6.35-7.28c5.81-1.2,11.5-2.97,17.24-4.5c-7.49-0.93-14.48,1.16-22.14,2.77
	c1.24-5.48,2.4-10.42,3.48-15.38c0.31-1.44,1.17-2.09,2.51-2.54c19.17-6.43,38.81-10.69,58.95-12.69c0.1,1.31-0.91,1.83-1.55,2.53
	c-13.1,14.19-24.72,29.48-34.15,46.36c-11.1,19.86-18.88,40.7-18.65,63.92c0.04,4.13,1.47,4.19,4.48,2.79
	c3.6-1.67,7.2-3.37,10.9-4.8c9.34-3.61,18.85-6.1,29.2-3.59c-0.62,1.37-1.11,2.54-1.68,3.68c-7.53,15.05-13.53,30.65-16.7,47.23
	c-2.91,15.22-3.47,30.29,3.22,44.83c2.01,4.36,2.61,4.44,5.63,0.86c13.72-16.25,30.42-28.71,49.16-38.53
	c24.13-12.64,49.88-20.12,76.79-23.85c2.05-0.28,2.61,0.13,2.88,2.24c0.42,3.21,1.03,6.62,3.3,9.09c2.85,3.1,1.69,4.36-1.47,6.27
	c-37.52,22.75-64.26,53.95-75.27,97.23c-2.11,8.3-3.2,16.79-3.64,25.37c0.58,0,0.76,0.06,0.84-0.01c0.66-0.53,1.31-1.07,1.94-1.64
	c15.03-13.5,32.11-23.34,51.65-28.73c15.54-4.28,31.31-5.82,47.38-4.21c2.09,0.21,3.22,1.09,4.12,2.94
	c2.72,5.55,6.37,10.49,11.03,14.55c1.79,1.56,1.85,2.73,0.7,4.59c-3.52,5.72-7.51,11.09-12.01,16.07
	c-17.07,18.9-38.29,31.54-61.75,40.79c-1.56,0.62-3.75,0.88-3.39,3.07c0.34,2.05,2.5,1.45,3.95,1.54
	c25.55,1.6,49.22-4.95,71.68-16.66c6.86-3.57,13.31-7.83,20.46-12.69c0,2.73-0.04,4.55,0.01,6.37c0.36,12.57,1.87,24.94,6.02,36.91
	c1.39,4.01,3.73,6.74,7.78,8.43c8.11,3.38,16.61,4.93,25.24,5.75c18.11,1.72,36.18,1.04,54.27-0.73
	c23.97-2.34,47.58-6.46,70.63-13.49c56.74-17.32,105.41-47.68,145.97-90.94c11.9-12.7,22.97-26.12,31.83-41.19
	c2.78-4.72,2.21-6.03-3.15-7.4c-9.33-2.38-18.94-2.52-28.47-2.76c-27.41-0.71-54.8,0.25-82.18,1.56
	c-16.53,0.79-33.05,1.68-49.54,3.19c-11.78,1.08-23.58,1.99-35.38,2.96c-1.01,0.08-2.33,0.82-2.36-1.23
	c-0.11-9.08-5.03-16.13-11.02-21.94c-4.61-4.47-5.27-7.94-2.02-13.19c1.1-1.78,1.81-2.48,3.76-2.31c7.24,0.64,14.51,1.08,21.74,1.84
	c3.08,0.33,6.25-0.04,9.25,1.31c28.09,12.56,57.33,16.07,87.55,10.45c34.14-6.34,63.34-21.95,86.99-47.56
	c2.18-2.36,4.16-4.92,6.31-7.47c2.37,4.14,5.62,6.78,9.46,8.84c6.12,3.28,12.74,4.87,19.55,5.48c12.29,1.09,24.21-0.3,34.97-6.87
	C749.58,458.2,749.8,447.74,738.7,441.38z M170.26,184.84c3.81-4.59,7.37-8.89,10.96-13.18c0.68-0.81,1.6-1.01,2.66-1
	c4.79,0.05,9.57,0.02,14.99,0.02C189.19,183.43,186.92,184.55,170.26,184.84z M193.63,182.11c4.31-10.44,12.6-13.23,23.24-10.86
	c0.91,0.2,1.88,0.12,2.89,0.17C212.96,180.38,204.86,185.73,193.63,182.11z M85.53,373.56c-0.8-7.92-0.21-8.73,7.77-10.69
	C93.78,370.9,93.52,371.25,85.53,373.56z M94.64,357.47c-0.99,3.81-5.04,2.31-7.99,4.6c0.98-5.48,1.21-10.37,2.84-14.72
	c1.1-2.94,5.09-3.37,8.5-4.78C96.82,347.88,95.87,352.71,94.64,357.47z M51.02,464.13c-0.04-0.22-0.08-0.44-0.13-0.66c0,0,0,0,0,0
	c-0.83-5.44-1.1-10.96-2.66-16.28c-2.14-18.39-4.37-36.76-5.53-55.25c-1.62-25.82-1.11-51.5,2.6-77.18
	c6.87-47.57,26.52-89.29,56.48-126.47c15.13-18.78,31.71-36.26,48.42-53.62c1.78-1.69,3.56-3.39,5.34-5.08
	c-2.71,1.15-4.9,2.72-6.41,5c-17.57,15.73-33.64,32.89-48.61,51.08c-37.55,45.62-58.54,97.66-60.82,156.97
	c-1.38,36.04,1.15,71.79,7.72,107.25c0.86,5.13,1.71,10.25,2.57,15.38c0.24,2.52,0.67,4.99,2.58,7.05c-0.5-2.66-1-5.32-1.51-7.99
	C51.04,464.25,51.03,464.19,51.02,464.13z M149.34,540.38c8.64-8.12,17.77-15.64,27.22-22.8c0.99-0.75,2.3-1.3,2.81-3.39
	c-1.96,1.06-3.34,1.74-4.65,2.53c-10.24,6.09-19.39,13.56-27.74,22.01c-2.07,2.09-3.35,2.13-4.45,0.3
	c-0.57,9.18-10.86,12.33-13.83,20.75c1.3-1.18,2.12-1.97,2.99-2.71c0.83-0.7,1.46-1.77,2.96-1.74c4.52,16.08,9.33,32.09,21.77,44.28
	c-5.72-9.49-10.61-19.37-14.37-29.82c-2.42-6.72-1.89-8.56,4.47-12.79c7.1,21.87,15.71,42.95,31.12,60.36
	c-0.26-0.46-0.51-0.94-0.79-1.39c-11.69-18.33-20.16-38.16-27.62-58.49c-0.91-2.47-0.47-3.87,1.38-5.43
	c4.57-3.88,9.36-7.45,14.42-10.67c1.67-1.06,3.72-1.79,5.04-4.39c-9.23,2.78-16.14,8.15-22.88,13.95
	C144.81,544.58,144.84,544.61,149.34,540.38z M139.54,561.51c-4.74-7-4.35-8.67,3.59-14.86
	C147.75,553.3,142.03,556.94,139.54,561.51z M700.37,427.52c16.83-2.73,33.5-6.18,49.78,1.83
	C740.68,420.06,707.86,418.95,700.37,427.52z M31.65,346.65c-4.63,38.71-2.63,76.99,8.38,114.63
	C32.45,423.42,30.82,385.14,31.65,346.65z M663.96,183.76c-1.74-10.93-66.78-64.12-105.57-86.76
	c-33.69-19.67-109.04-44.93-129.11-42.9C522.28,70.37,598.83,116.41,663.96,183.76z M394.32,35.97c8.28,0.33,16.6-0.18,24.86,0.85h0
	c13.48,1.07,26.88,2.88,40.14,5.44c43.56,8.41,84.54,23.75,122.82,46.24c53.86,31.64,97.42,73.8,130.03,127.16
	c14.18,23.2,25.65,47.73,35.25,73.15c1.74,4.9,3.48,9.81,5.21,14.71c-0.69-5.5-1.93-10.8-4.33-15.75c-0.15-0.69-0.22-1.42-0.46-2.08
	c-16.53-46.3-40.38-88.33-73.05-125.22C626.2,105.58,566.1,69.08,496.03,48.57c-22.83-6.68-46.09-11.21-69.89-12.55
	c-1.36-0.94-2.96-0.91-4.51-1.08c-9.09-0.98-18.2-0.49-27.31-0.39h-10.47C387.29,36.33,390.8,36.24,394.32,35.97z M83.67,461.84
	c14.91-7.53,30.98-11.87,46.88-16.68C116.01,444.63,92.62,452.96,83.67,461.84z M518.25,91c-30.31-12.76-61.54-21.71-94.59-23.33
	c-9.35-1.48-18.64-0.45-27.94,0.1c3.82,1.04,7.63,1.05,11.46,0.76c8.42,0.07,16.79,0.71,25.15,1.74
	c31.4,3.84,61.42,12.79,89.99,26.01c36.6,16.93,70.52,38.27,100.48,65.54c0.97,0.88,1.81,2.15,3.82,1.53
	c-0.89-1.3-2.23-2.1-3.36-3.14C591.88,131.62,557.56,107.54,518.25,91z M673.29,624.03c-28,29.83-60.82,53.17-97.04,71.91
	c-17.04,8.81-34.8,15.98-52.58,23.1c-4.69,1.65-9.38,3.3-14.07,4.96c0.12,0.34,0.25,0.68,0.37,1.02c5.15-1.73,10.56-2.63,15.47-5.16
	c21.93-7.09,42.81-16.64,63.11-27.45c55.47-29.54,99.3-71.15,130.15-126.08c7.21-12.83,13.59-26.1,18.32-40.09c0,0,0,0,0,0
	c2.22-3.57,3.03-7.62,3.62-11.78c-1.44,3.66-2.88,7.31-4.31,10.97C721.14,562.02,700.44,595.09,673.29,624.03z M630.17,628.03
	c-46.83,33.25-97.81,58.05-155.02,69.16C509.97,699.12,614.31,652.25,630.17,628.03z M713.59,416.05c2.8-0.31,5.19-0.58,7.57-0.83
	c9.89-1.06,19.72-3.15,29.75-1.36c3.91,0.7,7.85,1.21,11.78,1.81v-0.86C747.02,408.99,721.54,409.47,713.59,416.05z M645.31,629.86
	c0.17-0.82-0.09-1.2-0.97-0.94c-5.42,4.61-10.74,9.34-16.28,13.8c-39.25,31.56-83.56,52.82-132.31,65.15
	c-30.5,7.71-61.54,11.05-92.9,12.08h-17.64c2.41,1.86,4.91,1.58,7.4,1.45c24.6,0.94,49.05-0.85,73.36-4.4
	c33.68-4.92,65.81-15.05,96.45-29.82C593.04,672.42,621.04,653.83,645.31,629.86z M221.25,669.06c11.25,6.18,52.23,5.55,60.03-1.08
	C260.97,671.66,241.13,670.08,221.25,669.06z M196.7,673.25c2.43,1.14,4.94,2.15,7.45,3.11c2.32,0.89,4.7,1.63,7.05,2.44
	c-53.22-23.35-81.93-68.23-105.52-117.7c0.08,0.39,0.12,0.79,0.26,1.16c10.97,29.87,26.67,56.89,48.71,79.99
	C166.83,655.01,180.63,665.7,196.7,673.25z M244.25,711.3c-39.63-15.03-75.87-35.68-107.41-64.21
	c-8.85-8.01-16.61-17.03-24.22-26.22c1.71,4.07,4.46,7.42,7.17,10.79c16.49,20.41,36.69,36.54,58.71,50.53
	c36.57,23.22,76.23,38.97,118.33,48.76c16.6,3.86,33.21,7.63,50.18,9.52c1.09-0.55,2.48,0.23,3.47-0.79
	c-7.71-1.29-15.47-2.33-23.12-3.9C298.98,729.93,271.34,721.57,244.25,711.3z M227.59,680.15c14.01,3.7,27.99,4.38,41.89-0.49
	C255.51,681.27,241.54,679.53,227.59,680.15z M116.06,460.08c2.19-0.66,4.93-0.59,6.31-2.62c-2.8-3.11-9.43,5.11-9.7-4.67
	c-1.85,2.24-0.16,5.3-2.77,6.39c-2.62,1.09-5.19,2.58-7.92,3.01c-2.28,0.36-3.75,5.57-6.79,1.27c-0.26,0.29-0.73,0.57-0.75,0.88
	c-0.15,3.17-2.83,4.41-4.68,6.28c-0.13,0.13-0.07,0.44-0.1,0.65c1.19,0.77,1.97-1.06,3.32-0.32c-1.24,8.09-2.02,16.3-2.15,24.55
	c-0.14,8.33,0.69,16.55,3.1,25.08c0.49-0.79,0.76-1.01,0.73-1.2c-2.11-15.97-0.9-31.89,0.53-47.82c0.13-1.47,0.12-2.75,1.75-3.49
	c4.46-2.02,8.71-4.55,13.85-5.9c-2.1,23.04-2.34,45.66,3.61,67.93c0.4-0.94,0.52-1.89,0.38-2.8c-3.19-20.85-2.5-41.82-2.16-62.79
	C112.65,461.83,113.62,460.82,116.06,460.08z"/>
<path class="st1" d="M667.12,535.02c-3.79-0.62-7.63-0.96-11.46-1.22c-17.54-1.18-35.12-1.09-52.66-0.61
	c-22.37,0.61-44.74,1.45-67.09,2.96c-12.64,0.85-25.27,2.22-37.94,2.47c-4.84,0.09-6.49,2.49-7.93,6.47
	c-6.12,16.92-7.95,34.49-8.45,52.28c-0.1,7.58,1.02,15.04,1.64,22.56c1.29,15.87,5.48,30.98,10.59,45.92
	c0.82,2.38,2.05,2.94,4.52,2.13c12.42-4.06,24.69-8.53,36.6-13.9c38.1-17.2,71.59-40.96,100.51-71.12
	c12.66-13.21,24.13-27.39,33.92-42.89C671.75,536.28,671.61,535.76,667.12,535.02z M437.13,649.11c-0.92-7.02-1.65-14.07-2.47-21.11
	c-1.3-4.69-0.5-9.48-0.49-14.21c0-5.44-0.75-10.93,0.49-16.34c1.74-4.2,0.22-8.69,1.39-13.06c1.27-4.75,1.25-9.82,2.66-14.61
	c0.21-0.73,0.12-1.95-0.35-2.37c-0.59-0.54-1.57,0.03-2.35,0.45c-2.38,1.27-4.83,2.4-7.19,3.69c-15.37,8.39-31.76,12.91-49.32,12.88
	c-10.59-0.02-20.95-1.65-31-4.96c-3-0.99-4.46-0.57-5.72,2.6c-5.54,13.87-7.71,28.37-8.46,43.14c-0.64,12.59,1.05,25,3.4,37.35
	c1.76,9.25,5.79,15.95,16.05,17.71c10.26,1.76,20.52,3.28,30.93,3.56c18.71,0.51,37.28-1.17,55.84-3.28
	c4.2-0.48,4.19-1.68,2.89-4.95C440.04,667.09,438.31,658.15,437.13,649.11z"/>
<path class="st2" d="M364.67,555.04c11.7,0.88,23.37,0.16,34.71-3.17c4.26-1.25,8.51-2.9,11.63-7.22c-5.18,0.31-9.58,0.76-13.99,0.8
	c-10.55,0.09-21.11-0.05-31.55-1.91c-1.15-0.2-2.73,0-2.15-2.17c0.43-1.6,1.34-1.48,2.56-1.28c21.49,3.49,42.86,2.2,64.11-1.98
	c8.64-1.7,13.55-8.55,12.66-17.06c-15.77,7.19-29.17,10.49-45.72,11.34c-1.53,0.08-3.15,0.23-3.32-1.62c-0.15-1.7,1.64-1.7,2.8-1.83
	c3.68-0.42,7.4-0.52,11.06-1.05c13.09-1.87,26.02-4.5,37-12.43c8.68-6.26,13.79-14.64,13.19-26.13
	c-15.67,5.95-31.26,10.66-47.07,14.71c-1.6,0.41-3.59,1.19-4.02-0.6c-0.49-2.03,2.07-2.43,3.48-2.77
	c13.89-3.32,27.47-7.67,40.96-12.29c7.52-2.57,14.03-6.46,15.21-15.31c0.92-6.88-1.07-13.18-4.68-18.99
	c-9.31-15.01-24.14-15.94-40.36-15.83c6.17,6.36,11.8,12.05,14.7,19.78c-10.76-15.1-26.17-24.72-41.02-35.01
	c7.99,2.7,15.06,6.99,22.53,12.33c0.02-6.27-1.68-11.02-4.31-15.45c-7.65-12.85-18.27-20.22-33.97-19.06
	c-12.13,0.9-23.4,5.13-34.99,8.12c-8.22,2.12-15.46,6.1-21.82,11.74c-14.29,12.66-24.11,28.48-32.69,45.3
	c-4.25,8.33-5.19,16.86-2.85,25.58c5.06,18.89,14.8,35.23,28.48,49.2c6.03,6.16,13.36,9.7,21.9,11.32
	C346.25,553.83,355.47,554.35,364.67,555.04z M691.94,369.96c-4.3-5.02-7.2-10.86-9.73-16.89c-2.3-5.46-4.46-10.98-7.12-17.56
	c-2.59,19.19-8.75,35.89-17.73,51.54c-5.09,8.87-10.64,17.52-19.58,23.12c-4.79,3-9.22,0.67-10.49-4.77
	c-1.31-5.6-0.72-11.24,0.38-16.55c4.37-21.14,12.4-40.84,26.02-57.81c3.94-4.92,7.82-10.69,15.54-10.67
	c1.8,0.01,0.71-1.64,0.42-2.63c-3.11-10.87-6.88-21.48-12.21-31.49c-7.98-14.97-18.1-28.04-34.03-35.08
	c-11.19-4.94-22.97-7.43-35.03-2.66c-9.67,3.83-16.72,10.95-22.86,19.06c-14.48,19.14-21.53,41.22-23.65,64.7
	c-1.99,21.99,0.71,43.62,10.24,63.91c1.66,3.53,2.77,7.61,6.21,10.03c9.61,6.76,18.85,14.06,29.06,19.97
	c14.27,8.27,29.1,12.54,45.86,9.52c10.33-1.87,20.37-4.93,30.71-6.52c6.14-0.95,12.97-3.39,17.57,3.69
	c6.61-5.52,20.57-43.77,20.38-59.27C697.49,375.34,694.57,373.03,691.94,369.96z M486.81,654.34c-5.14-16.34-7.51-33.19-8.32-50.21
	c-0.74-15.46,0.79-30.81,4.47-45.92c1.49-6.14,3.48-12.11,5.62-18.21c-6.01-0.56-11.55,1.11-17.19,1.57
	c-0.49,0.04-1.09,0.45-1.38,0.87c-6.05,9.01-15.06,14.41-24.06,19.83c-1.92,1.16-3.1,2.88-3.59,5.06
	c-2.77,12.21-3.79,24.63-4.42,37.09c-0.56,11.12,0.16,22.24,1.06,33.3c0.99,12.25,2.99,24.41,6.9,36.18c1.33,4,3.29,5.67,7.64,4.76
	c12.32-2.59,24.71-4.88,36.81-8.45c1.53-0.45,1.63-0.72,1.05-2.24C489.66,663.49,488.24,658.91,486.81,654.34z M465.24,543.56
	c3.46-4.01,4.61-8.4,2.65-13.32c-2.78-7-7.57-12.6-12.96-17.72c-0.45-0.43-1.24-1.43-1.69-0.67c-2,3.41-6.83,4.44-6.97,9.58
	c-0.21,7.92-3.05,14.88-10.88,18.3c-5.05,2.21-10.57,3.16-16.07,3.47c-2.39,0.14-3.85,0.86-5.17,2.85
	c-2.41,3.63-5.96,5.89-9.97,7.59c-8.8,3.72-18.13,4.69-27.48,4.95c-14.12,0.39-28.17-0.93-42.06-3.53
	c-2.97-0.56-3.62,0.66-3.75,2.92c-0.39,6.85,3.57,11.33,8.95,14.31c12.79,7.08,27,7.95,41.03,8.7c9.67-0.78,19.19-1.26,28.29-4.46
	c11.34-4,21.93-9.58,32.37-15.44C450.13,556.24,458.64,551.21,465.24,543.56z M729.73,443.67c-4.34-2.74-9.24-3.4-14.7-3.19
	c-4.34-0.43-8.86,0.57-13.14,2.57c-1.78,0.83-3.56,1.93-3.53,4.35c0.03,2.24,1.7,3.28,3.36,4c9.34,4.06,18.73,4.17,27.88-0.5
	C733.15,449.1,733.13,445.81,729.73,443.67z M656.84,334.61c-5.88,6.78-9.35,14.68-10.04,23.24c-0.03,2.63-0.15,5.09,2.09,6.11
	c2.43,1.1,4.21-0.77,5.76-2.4c6.26-6.59,9.09-14.73,10.31-23.52c0.32-2.29,0.01-4.8-2.36-5.9
	C660.08,330.98,658.18,333.07,656.84,334.61z M348.81,404.18c5.92-1.16,11.64-3.35,17.84-5.17c-3.85-2.71-8.27-4.82-12.84-5.97
	c-1.32-0.33-2.65-0.54-4-0.66c-3.16-0.29-6.38-0.08-9.52,0.22c-4.18,0.39-8.42,1.16-12.19,3.09c2.97-3.66,7.58-5.39,12.12-6.08
	c1.65-0.25,3.3-0.4,4.97-0.41c1.87-0.01,4.37-0.37,6.17,0.06c0.87,0.21,1.74,0.42,2.6,0.63c-1.09-3.65-3.97-5.83-6.84-7.84
	c-15.13-10.6-36.09-10.06-50.96,1.09c-11.22,8.42-17.92,20.38-25.12,31.92c-3.44,5.51-6.03,11.5-6.98,18.02
	c-0.72,4.9,0.33,9.74,2.65,14.09c1.18,2.21,2.63,4.26,4.19,6.21c0.41,0.52,0.57,1,1.16,0.76c0.46-0.19,0.94-1.22,1.17-1.64
	c0.62-1.14,1-2.41,1.3-3.67c1.22-5.07,3.01-9.78,6.05-14.08c-3.01,12.32-6.45,24.64-5.46,37.46c1.1,2.88,1.71,5.99,4.08,8.28
	c0.63,0.6,1.1,1.37,2.07,1.21c1.21-0.2,0.72-1.31,0.98-2.04c0.95-2.68,0.53-5.57,1.66-8.31c5.35-13,12.36-25.03,20.75-36.26
	C315.94,419.95,329.45,407.99,348.81,404.18z"/>
<path class="st3" d="M337.34,574.41c-3.67-1.82-5.99-5.21-7.99-8.72c-1.66-2.91-3.1-6.26-1.46-9.28c1.53-2.84,0.28-3.44-1.75-4.32
	c-4.47-1.95-8.36-4.72-11.94-8.05c-6.85-6.36-12.49-13.68-17.28-21.64c-6.53-10.86-12.14-22.16-13.99-34.9
	c-0.33-2.29-1.37-1.71-2.56-1.04c-2.97,1.68-5.97,3.31-8.83,5.16c-35.26,22.7-60.4,53.01-70.42,94.46c-1.19,4.93-2.88,10.02-2,15.52
	c2.66-0.94,4.14-2.94,6.02-4.35c25.98-19.49,55.36-27.8,87.57-26.37c4.6,0.21,5.59-0.45,4.03-4.77c-0.58-1.62-0.09-3.62-0.09-5.56
	c2.22,1.86,1.56,4.57,2.4,6.78c4.4,11.62,12.28,20.38,22.13,27.59c1.52,1.11,4.57,2.17,3.27,4.17c-1.33,2.06-3.45-0.7-5.1-1.37
	c-1.83-0.74-2.78-1.86-4.28,0.72c-7.72,13.24-18.21,24.03-30.31,33.34c-11.77,9.07-24.65,16.21-38.22,22.49
	c4.68,1,9.42,0.86,13.96,0.24c24.67-3.38,47.03-12.65,67.32-27.06c2.9-2.06,4.04-4.44,4.11-7.81c0.26-13.17,3.05-25.92,7.87-38.08
	C341.39,577.58,340.82,576.14,337.34,574.41z M152.27,431.27c1.86,0.46,2.86-0.42,3.72-2c2.19-3.97,4.42-7.92,6.82-11.77
	c16.6-26.61,36.6-50.14,62.28-68.52c6-4.29,12.52-7.73,19.53-11.68c-2.86-1.24-4.99-2.27-7.2-3.12
	c-21.36-8.27-43.65-8.49-66.07-7.59c-2.08,0.08-3.73,0.91-5.2,2.51c-23.41,25.36-43.12,52.94-52.15,86.9
	c-2.04,7.66-3.3,15.48-2.36,23.9c2.88-1.24,5.42-2.43,8.03-3.45C130.17,432.36,140.67,428.36,152.27,431.27z M462.91,485.44
	c-2.69,2.13-1.66,5.16-1.81,7.9c-0.06,1-0.09,2.01,1.37,2.14c6.55,0.61,13.07,1.65,19.77,1.12c-5.21-3.64-10.55-6.84-15.48-10.64
	C465.61,485.06,464.32,484.32,462.91,485.44z M702.23,309.51c-6.15-21.34-16.34-40.91-28.27-59.58
	c-12.21-19.11-26.21-36.87-41.32-53.71c-3.78-4.21-8.42-7.66-12.88-11.26c4.13,6.97,7.62,14.24,10.5,21.81
	c0.51,1.33,1.18,3.1-0.15,3.88c-1.52,0.89-2.21-0.94-2.57-2.05c-4.73-14.49-12.74-27.13-22-39.06
	c-8.77-11.28-18.05-22.04-29.57-30.7c-2.69-2.02-5.02-1.95-7.82-0.52c-14.82,7.58-26.3,18.97-36.09,32.1
	c-11.96,16.06-19.78,34.02-22.95,53.87c-0.33,2.05-1.57,2.71-3.99,3.96c6.41-38.32,25.12-67.92,56.34-90.07
	c-10.32-5.88-20.51-10.5-30.91-14.63c-18.31-7.27-37.14-13.08-55.74-19.57c-25.78-9-52.36-13.13-79.48-13.97
	c-19.24-0.6-38.44,0.05-57.63,2.34c-12.43,1.48-24.79,3.31-37,5.87c-18.75,3.93-37.12,9.34-54.83,16.74
	c-25.73,10.74-49.41,24.67-68.76,45.14c-2.17,2.3-4.78,4.34-5.94,7.57c6.16,1.33,11.83-1.89,17.82-0.51
	c3.26,0.75,6.83,0.06,10.25,0.22c2.5,0.12,4.46-0.6,5.86-2.71c2.4-2.61,4.77-5.25,7.22-7.81c0.86-0.9,1.92-1.61,3.21-2.13
	c-2.47,3.97-5.25,7.67-8.79,10.77h0c-0.59,1.16-0.47,1.77,1.07,1.83c3.7,0.16,7.41,0.34,11.09,0.75c4.39,0.49,7.93-0.77,11.22-3.79
	c3.03-2.78,6.47-5.19,10.71-6.24c-3.78,3.09-7.56,6.18-12.1,9.89c3.63,0.41,6.38,0.78,9.14,1.01c17.47,1.46,34.8,3.75,51.48,9.43
	c8.28,2.82,16.15,6.49,21.85,13.53c2.6,3.21,1.94,4.57-1.98,5.31c-6.12,1.16-12.24,2.41-18.28,3.93
	c-15.65,3.96-31.28,7.97-46.68,12.89c-22.94,7.32-45.04,16.44-65.78,28.67c-38.6,22.75-66.74,55.13-86.75,94.91
	c-0.65,1.3-1.18,2.5-0.86,3.97c8.09-1.98,7.9-2.05,10.68-9.57c0.84-2.26,0.86-5.23,3.73-6.95c-0.6,2.84-0.77,5.38-1.89,7.72
	c-0.56,1.18-0.97,2.66-0.16,3.65c0.88,1.07,2.11-0.17,3.08-0.47c15.78-4.85,31.81-8.41,48.19-10.63
	c20.32-2.75,40.61-3.33,60.91-0.28c11.01,1.66,21.66,4.72,31.6,9.9c1.18,0.62,3.05,1.05,2.98,2.63c-0.06,1.28-1.78,1.58-2.89,2.17
	c-4.65,2.46-9.41,4.75-13.88,7.51c-20.42,12.61-37.11,29.33-51.54,48.28c-21.74,28.56-39.1,59.33-45.13,95.35
	c-1.97,11.78-1.87,23.48,2.24,34.95c1.21,3.37,2.09,3.43,4.3,0.83c8.26-9.75,18.04-17.81,28.49-25.09
	c16.95-11.79,35.53-20.27,55.13-26.47c13.4-4.24,27.05-7.64,41.13-8.96c1.55-0.15,3.5-0.21,3.86-2.01c0.43-2.13,1.1-4.46-0.83-6.45
	c-1.58-1.63-3.09-3.37-4.39-5.23c-4.58-6.49-7.35-13.63-5.41-21.6c2.1-8.62,6.3-16.38,11.22-23.75c0.99-1.48,2.23-2.88,2.13-4.98
	c-0.38-7.88,1.47-15.44,3.34-23.02c3.28-13.32,16.2-24.84,29.6-25.96c9.23-0.77,18.1,0.99,26.77,4.11
	c19.45,7,34.19,20.16,46.93,35.89c2.12,2.62,4,4.79,7.92,4.8c2.69,0,5.59,1.19,8.05,2.49c12.52,6.63,20.65,16.64,23.17,30.86
	c0.23,1.3-0.36,3.84,2.02,3.54c5.33-0.67,10.53,0.58,15.79,0.68c2.18,0.04,2.52-0.88,2.6-2.79c0.45-9.92,3.16-19.29,7.73-28.05
	c10.63-20.36,29.19-30.1,52.62-27.73c11.14,1.13,21.08,5.55,30.54,11.17c6.23,3.7,12.26,7.72,18.67,11.79
	c-0.08-0.9,0.01-1.38-0.18-1.71c-7.15-13.24-9.97-27.79-11.49-42.42c-0.93-8.92-0.68-18.08,0.64-27.21
	c1.84-12.69,4.63-25.02,9.4-36.9c5.73-14.3,13.55-27.26,25.19-37.56c5.91-5.23,12.51-9.46,20.54-10.67
	c13.58-2.05,26.08,1.36,37.43,8.59c19.09,12.15,29.29,30.91,36.61,51.46c5.84,16.41,9.9,33.45,17.13,49.38
	c2.59,5.71,5.26,11.38,9.67,15.97c2.7,2.81,5.42,2.6,7.34-0.66c1.72-2.92,2.93-6.11,3.71-9.45
	C710.06,341.93,706.86,325.56,702.23,309.51z M529.43,220.15c1.68-9.31,4.96-18.77,8.85-28.03c5.44-12.96,12.41-24.87,23.07-34.37
	c2.36-2.1,4.14-2.52,6.98-0.73c13.48,8.49,23.22,20.45,31.77,33.56c2.31,3.54,4.31,7.27,6.64,11.23
	C579.95,203.65,553.11,204.95,529.43,220.15z M635.21,237.87c-12.25-9.25-25.74-14.92-41.46-13.23c-8.5,0.91-15.58,5.09-21.64,10.9
	c-3.46,3.31-6.52,7.03-10.18,11.01c3.63-10.06,16.88-20.88,27.21-23.76c17.62-4.92,31.91,2.31,45.53,11.84
	c6.08,4.25,11.9,9.02,15.99,15.53C645.52,246.05,640.46,241.84,635.21,237.87z"/>
<path class="st4" d="M322.64,357.44c-8.29-1.71-16.61-1.65-24.68,1.71c-13.48,5.62-19.85,22.22-19.97,39.13
	c1.15-1.56,1.73-2.34,2.3-3.12c9.02-12.37,20.14-21.66,35.95-23.55c14.31-1.72,27.54,1.3,37.39,12.28
	c4.01,4.47,8.13,8.01,13.09,11.27c4.36,2.86,8.3,2.47,12.71,2.3c0-0.6,0.11-0.96-0.02-1.12
	C364.58,377.4,346.95,362.45,322.64,357.44z M670.88,431.76c-2.12,0.07-4.26,0.31-6.35,0.7c-10.84,2-21.48,4.91-32.36,6.86
	c-12.9,2.31-24.75-0.06-36.41-5.28c-13.89-6.22-25.8-15.51-38.03-24.32c-13.94-10.04-27.47-20.83-43.96-26.52
	c-17.04-5.88-33.72-5.23-48.58,5.85c-13.58,10.13-18.7,25.09-21.35,41.19c-0.78,4.73,0.45,7.12,5.21,8.78
	c12.73,4.45,25.64,24.94,18.72,39.78c-1.3,2.79-0.36,3.87,1.8,5.4c23.66,16.8,49.92,25.9,78.94,27.07
	c12.42,0.35,24.76-0.09,36.95-2.76c16.73-3.66,32.58-9.68,47.24-18.52c19.01-11.46,36.14-24.83,45.3-46.14
	C681.13,436.61,678.52,431.51,670.88,431.76z M553.55,481.68c-20.48-1.67-45.09-21.02-51.11-40.25c-0.56-1.78,0.15-4.75-1.92-5.06
	c-2.42-0.36-4.73,1.42-6.55,3.32c-2.19,2.29-3.02,3.73-4.43,8.32c-1.62-3.49,0.67-9.23,5.08-12.73c6.02-4.78,18.54-3.37,27.2,3.75
	c-5.47-1.14-9.76-2.59-14.21-3.3c-3.74-0.6-4.29,0.31-3.02,3.7c6.27,16.7,17.62,28.47,34.04,35.3c5.46,2.27,11.09,4.13,16.65,6.17
	c0,0,0,0,0,0c4.78,0.03,9.1,2.3,13.74,3.09C563.78,483.73,558.45,484.25,553.55,481.68z M570.32,162.19
	c-5.31-3.94-5.49-3.79-10.14,0.99c-10.48,10.78-16.87,23.95-22.01,37.82c-1.37,3.71-2.93,7.43-3.43,11.77
	c21.3-9.51,43.38-12.57,66.54-14.06C593.02,184.24,583.29,171.83,570.32,162.19z"/>
</svg>
